<svg xmlns="http://www.w3.org/2000/svg" viewBox="75.41 53.74 13.18 13.18">
  <style>
    svg {
      color: #111;
    }
    @media (prefers-color-scheme: dark) {
      svg {
        color: #fafafa;
      }
    }
    use {
      fill: currentColor;
    }
  </style>
  <defs>
<path id="g1-23" d="M1.750436-2.873225C1.75741-2.901121 1.764384-2.942964 1.764384-2.977833C1.764384-2.984807 1.764384-3.075467 1.652802-3.075467C1.645828-3.075467 1.248319-3.040598 1.199502-3.040598C1.066999-3.02665 .941469-3.019676 .808966-3.005729C.697385-2.998755 .613699-2.991781 .613699-2.84533C.613699-2.747696 .711333-2.747696 .795019-2.747696C1.129763-2.747696 1.129763-2.705853 1.129763-2.643088C1.129763-2.601245 1.094894-2.461768 1.066999-2.371108L.718306-.962391C.54396-.265006 .509091-.125529 .509091-.097634C.509091 0 .613699 0 .641594 0H.753176C1.373848-.097634 2.259527-.425405 3.005729-1.08792C3.954172-1.931756 4.093649-2.838356 4.093649-2.852304C4.093649-2.977833 3.996015-3.075467 3.856538-3.075467C3.612453-3.075467 3.563636-2.880199 3.500872-2.684932C3.221918-1.694645 2.287422-.627646 1.101868-.278954L1.750436-2.873225Z"/>
<path id="g0-32" d="M4.801993-6.655044C4.811955-6.694894 4.83188-6.75467 4.83188-6.804483C4.83188-6.90411 4.762142-6.914072 4.712329-6.914072C4.612702-6.914072 4.60274-6.894147 4.562889-6.714819L2.909091-.129514C2.15193-.219178 1.77335-.587796 1.77335-1.24533C1.77335-1.444583 1.77335-1.703611 2.311333-3.098381C2.351183-3.217933 2.420922-3.387298 2.420922-3.58655C2.420922-4.034869 2.102117-4.403487 1.603985-4.403487C.657534-4.403487 .288917-2.958904 .288917-2.86924C.288917-2.769614 .388543-2.769614 .408468-2.769614C.508095-2.769614 .518057-2.789539 .56787-2.948941C.836862-3.895392 1.235367-4.184309 1.574097-4.184309C1.653798-4.184309 1.823163-4.184309 1.823163-3.865504C1.823163-3.606476 1.723537-3.35741 1.594022-3.008717C1.115816-1.753425 1.115816-1.494396 1.115816-1.325031C1.115816-.37858 1.892902 .029888 2.849315 .089664C2.769614 .448319 2.769614 .468244 2.630137 .996264C2.600249 1.105853 2.400996 1.912827 2.400996 1.942715C2.400996 1.952677 2.400996 2.042341 2.520548 2.042341C2.540473 2.042341 2.590286 2.042341 2.610212 2.002491C2.6401 1.982565 2.699875 1.733499 2.729763 1.594022L3.108344 .109589C3.476961 .109589 4.353674 .109589 5.290162-.956413C5.69863-1.414695 5.907846-1.853051 6.017435-2.15193C6.107098-2.400996 6.326276-3.267746 6.326276-3.706102C6.326276-4.26401 6.057285-4.403487 5.88792-4.403487C5.638854-4.403487 5.389788-4.144458 5.389788-3.92528C5.389788-3.795766 5.449564-3.73599 5.539228-3.656289C5.648817-3.5467 5.897883-3.287671 5.897883-2.809465C5.897883-2.171856 5.379826-1.354919 5.031133-.996264C4.154421-.109589 3.516812-.109589 3.158157-.109589L4.801993-6.655044Z"/>
</defs>
  <g>

<use x="76.712329" y="62.764633" href="#g0-32"/>
<use x="83.201913" y="64.259013" href="#g1-23"/>

  </g>
</svg>
